<svg width="20" height="20" viewBox="0 0 20 20" fill="none" xmlns="http://www.w3.org/2000/svg">
<path d="M10.1121 11.4232C10.0935 11.4232 10.0656 11.4232 10.047 11.4232C10.0191 11.4232 9.98188 11.4232 9.95398 11.4232C7.84232 11.3581 6.26093 9.71161 6.26093 7.68368C6.26093 5.61857 7.94465 3.93484 10.0098 3.93484C12.0749 3.93484 13.7586 5.61857 13.7586 7.68368C13.7493 9.72091 12.1586 11.3581 10.14 11.4232C10.1214 11.4232 10.1214 11.4232 10.1121 11.4232ZM10.0005 5.32089C8.69816 5.32089 7.64697 6.38136 7.64697 7.67438C7.64697 8.94882 8.64235 9.98138 9.90746 10.0279C9.93537 10.0186 10.0284 10.0186 10.1214 10.0279C11.3679 9.96277 12.3447 8.93952 12.354 7.67438C12.354 6.38136 11.3028 5.32089 10.0005 5.32089Z" fill="white"/>
<path d="M10.0007 20.0001C7.49842 20.0001 5.10773 19.0699 3.25656 17.3769C3.08912 17.228 3.0147 17.0048 3.03331 16.7908C3.15424 15.6839 3.84261 14.6513 4.9868 13.8885C7.75889 12.0466 12.2519 12.0466 15.0147 13.8885C16.1589 14.6606 16.8473 15.6839 16.9682 16.7908C16.9961 17.0141 16.9124 17.228 16.7449 17.3769C14.8938 19.0699 12.5031 20.0001 10.0007 20.0001ZM4.49377 16.6048C6.03796 17.8978 7.98215 18.6048 10.0007 18.6048C12.0193 18.6048 13.9635 17.8978 15.5077 16.6048C15.3403 16.0373 14.8938 15.4885 14.2333 15.042C11.9449 13.5164 8.06587 13.5164 5.75889 15.042C5.09842 15.4885 4.66122 16.0373 4.49377 16.6048Z" fill="white"/>
<path d="M10 20C4.48372 20 0 15.5163 0 10C0 4.48372 4.48372 0 10 0C15.5163 0 20 4.48372 20 10C20 15.5163 15.5163 20 10 20ZM10 1.39535C5.25581 1.39535 1.39535 5.25581 1.39535 10C1.39535 14.7442 5.25581 18.6047 10 18.6047C14.7442 18.6047 18.6047 14.7442 18.6047 10C18.6047 5.25581 14.7442 1.39535 10 1.39535Z" fill="white"/>
</svg>
