<svg width="35" height="35" viewBox="0 0 35 35" fill="none" xmlns="http://www.w3.org/2000/svg">
<path d="M32.3834 14.7363V29.526C32.3834 32.1562 30.2513 34.2883 27.6212 34.2883H21.9064C21.3804 34.2883 20.954 33.8619 20.954 33.3359V21.9064C20.954 21.3804 20.5276 20.954 20.0015 20.954H14.2868C13.7608 20.954 13.3344 21.3804 13.3344 21.9064V33.3359C13.3344 33.8619 12.9079 34.2883 12.3819 34.2883H6.6672C4.03707 34.2883 1.90493 32.1562 1.90493 29.526V14.7363L1.55796 15.022C1.15191 15.3564 0.551651 15.2983 0.217253 14.8923C-0.117145 14.4862 -0.0590562 13.886 0.346999 13.5516L16.5387 0.217226C16.8904 -0.0724086 17.398 -0.0724086 17.7497 0.217226L33.9414 13.5516C34.3474 13.886 34.4055 14.4862 34.0711 14.8923C33.7367 15.2983 33.1365 15.3564 32.7304 15.022L32.3834 14.7363ZM30.4913 13.178L17.1442 2.18631L3.79708 13.178C3.80547 13.2289 3.80984 13.2811 3.80984 13.3343V29.526C3.80984 31.1041 5.08912 32.3834 6.6672 32.3834H11.4295V21.9064C11.4295 20.3283 12.7087 19.0491 14.2868 19.0491H20.0015C21.5796 19.0491 22.8589 20.3283 22.8589 21.9064V32.3834H27.6212C29.1992 32.3834 30.4785 31.1041 30.4785 29.526V13.3343C30.4785 13.2811 30.4829 13.2289 30.4913 13.178Z" fill="white" fill-opacity="0.97"/>
</svg>
