<svg width="30" height="30" viewBox="0 0 30 30" fill="none" xmlns="http://www.w3.org/2000/svg">
<path fill-rule="evenodd" clip-rule="evenodd" d="M15 28.5C22.4558 28.5 28.5 22.4558 28.5 15C28.5 7.54418 22.4558 1.5 15 1.5C7.54418 1.5 1.5 7.54418 1.5 15C1.5 22.4558 7.54418 28.5 15 28.5ZM15 30C23.2843 30 30 23.2843 30 15C30 6.71572 23.2843 0 15 0C6.71572 0 0 6.71572 0 15C0 23.2843 6.71572 30 15 30Z" fill="#333333"/>
<path fill-rule="evenodd" clip-rule="evenodd" d="M6.75 15C6.75 14.5858 7.08578 14.25 7.5 14.25H22.5C22.9142 14.25 23.25 14.5858 23.25 15C23.25 15.4142 22.9142 15.75 22.5 15.75H7.5C7.08578 15.75 6.75 15.4142 6.75 15Z" fill="#333333"/>
<path fill-rule="evenodd" clip-rule="evenodd" d="M15 6.75C15.4142 6.75 15.75 7.08578 15.75 7.5V22.5C15.75 22.9142 15.4142 23.25 15 23.25C14.5858 23.25 14.25 22.9142 14.25 22.5V7.5C14.25 7.08578 14.5858 6.75 15 6.75Z" fill="#333333"/>
</svg>
