<svg width="18" height="20" viewBox="0 0 18 20" fill="none" xmlns="http://www.w3.org/2000/svg">
<path fill-rule="evenodd" clip-rule="evenodd" d="M14.5355 5.01406H12.4654V3.69523H14.1555C14.588 3.69523 14.9368 3.2627 14.9368 2.73142V0.96381C14.9368 0.430027 14.588 0 14.1555 0H9.54146C9.10894 0 8.76141 0.431277 8.76141 0.96381V2.73142C8.76141 3.26395 9.10894 3.69523 9.54146 3.69523H11.2641V5.01406H2.9248C2.46227 5.01406 2.08725 5.38909 2.08725 5.84912L0 16.6385V20H17.4988C17.4988 20 17.4988 17.0986 17.4988 16.6385L15.3743 5.84912C15.3743 5.38909 14.9993 5.01406 14.5355 5.01406ZM5.00368 15.0197H3.71485V13.7109H5.00368V15.0197ZM3.7136 12.5195V11.2107H5.00243V12.5195H3.7136ZM7.50384 15.0384H6.21501V13.7109H7.50384V15.0384ZM7.50384 12.4995H6.195V11.2295H7.50384V12.4995ZM10.004 15.0359H8.69516V13.7096H10.004V15.0359ZM8.69516 12.4995V11.2107H10.004V12.4995H8.69516ZM10.004 9.99938H3.71485V7.49922H10.004V9.99938ZM13.7342 9.99938H11.2116V8.7243H13.7342V9.99938Z" fill="white"/>
</svg>
