<svg width="15" height="20" viewBox="0 0 15 20" fill="none" xmlns="http://www.w3.org/2000/svg">
<path d="M13.3333 8.66667H12V6C12 3.4 9.93331 1.33333 7.33331 1.33333C4.73331 1.33333 2.66665 3.4 2.66665 6V8.66667H1.33331V6C1.33331 2.66667 3.99998 0 7.33331 0C10.6666 0 13.3333 2.66667 13.3333 6V8.66667Z" fill="white"/>
<path d="M12.6667 20H2C0.866667 20 0 19.1333 0 18V10C0 8.86667 0.866667 8 2 8H12.6667C13.8 8 14.6667 8.86667 14.6667 10V18C14.6667 19.1333 13.8 20 12.6667 20ZM2 9.33333C1.6 9.33333 1.33333 9.6 1.33333 10V18C1.33333 18.4 1.6 18.6667 2 18.6667H12.6667C13.0667 18.6667 13.3333 18.4 13.3333 18V10C13.3333 9.6 13.0667 9.33333 12.6667 9.33333H2Z" fill="white"/>
<path d="M7.33333 13.3333C8.06971 13.3333 8.66667 12.7364 8.66667 12C8.66667 11.2636 8.06971 10.6667 7.33333 10.6667C6.59695 10.6667 6 11.2636 6 12C6 12.7364 6.59695 13.3333 7.33333 13.3333Z" fill="white"/>
<path d="M7.66665 12H6.99998L6.33331 16H8.33331L7.66665 12Z" fill="white"/>
</svg>
