<svg width="24" height="24" viewBox="0 0 24 24" fill="none" xmlns="http://www.w3.org/2000/svg">
<path d="M12 18.25C11.8011 18.25 11.6103 18.329 11.4697 18.4697C11.329 18.6103 11.25 18.8011 11.25 19C11.25 19.1989 11.329 19.3897 11.4697 19.5303C11.6103 19.671 11.8011 19.75 12 19.75H18C18.4641 19.75 18.9092 19.5656 19.2374 19.2374C19.5656 18.9092 19.75 18.4641 19.75 18V6C19.75 5.53587 19.5656 5.09075 19.2374 4.76256C18.9092 4.43437 18.4641 4.25 18 4.25H12C11.8011 4.25 11.6103 4.32902 11.4697 4.46967C11.329 4.61032 11.25 4.80109 11.25 5C11.25 5.19891 11.329 5.38968 11.4697 5.53033C11.6103 5.67098 11.8011 5.75 12 5.75H18C18.0663 5.75 18.1299 5.77634 18.1768 5.82322C18.2237 5.87011 18.25 5.9337 18.25 6V18C18.25 18.0663 18.2237 18.1299 18.1768 18.1768C18.1299 18.2237 18.0663 18.25 18 18.25H12Z" fill="white"/>
<path fill-rule="evenodd" clip-rule="evenodd" d="M14.503 14.365C15.193 14.365 15.753 13.805 15.753 13.115V10.875C15.753 10.185 15.193 9.62501 14.503 9.62501H9.89002C9.88366 9.55165 9.87699 9.47831 9.87002 9.40501L9.81602 8.84901C9.79693 8.65264 9.73076 8.46376 9.62313 8.29841C9.5155 8.13305 9.36959 7.99609 9.19775 7.89913C9.02592 7.80217 8.83324 7.74808 8.63605 7.74145C8.43887 7.73481 8.24299 7.77582 8.06502 7.86101C6.43056 8.64392 4.95083 9.71543 3.69702 11.024L3.59802 11.128C3.37445 11.3613 3.24963 11.6719 3.24963 11.995C3.24963 12.3181 3.37445 12.6287 3.59802 12.862L3.69802 12.965C4.95147 14.2738 6.43085 15.3457 8.06502 16.129C8.24299 16.2142 8.43887 16.2552 8.63605 16.2486C8.83324 16.2419 9.02592 16.1878 9.19775 16.0909C9.36959 15.9939 9.5155 15.857 9.62313 15.6916C9.73076 15.5263 9.79693 15.3374 9.81602 15.141L9.87002 14.585L9.89002 14.365H14.503ZM9.19502 12.865C9.00418 12.8652 8.82056 12.9381 8.68159 13.0689C8.54261 13.1997 8.45873 13.3785 8.44702 13.569C8.42802 13.859 8.40502 14.15 8.37702 14.44L8.36102 14.602C7.0556 13.9291 5.86813 13.0487 4.84502 11.995C5.86809 10.9413 7.05556 10.0608 8.36102 9.38801L8.37702 9.55001C8.40502 9.84001 8.42802 10.13 8.44702 10.421C8.45873 10.6115 8.54261 10.7904 8.68159 10.9212C8.82056 11.052 9.00418 11.1249 9.19502 11.125H14.253V12.865H9.19502Z" fill="white"/>
</svg>
