<svg width="30" height="43" viewBox="0 0 30 43" fill="none" xmlns="http://www.w3.org/2000/svg">
<path d="M15 0C13.0109 0 11.1032 0.848708 9.6967 2.35942C8.29018 3.87013 7.5 5.91909 7.5 8.05556H0V10.7407V40.2778V42.963H30V40.2778V10.7407V8.05556H22.5C22.5 5.91909 21.7098 3.87013 20.3033 2.35942C18.8968 0.848708 16.9891 0 15 0ZM15 2.68519C16.3261 2.68519 17.5979 3.25099 18.5355 4.25813C19.4732 5.26527 20 6.63124 20 8.05556H10C10 6.63124 10.5268 5.26527 11.4645 4.25813C12.4021 3.25099 13.6739 2.68519 15 2.68519ZM2.5 10.7407H7.5V13.6619C6.76972 13.9392 6.1373 14.4527 5.68965 15.1316C5.24201 15.8106 5.00109 16.6217 5 17.4537C5 18.5219 5.39509 19.5464 6.09835 20.3018C6.80161 21.0571 7.75544 21.4815 8.75 21.4815C9.74456 21.4815 10.6984 21.0571 11.4017 20.3018C12.1049 19.5464 12.5 18.5219 12.5 17.4537C12.4989 16.6217 12.258 15.8106 11.8103 15.1316C11.3627 14.4527 10.7303 13.9392 10 13.6619V10.7407H20V13.6619C19.2697 13.9392 18.6373 14.4527 18.1897 15.1316C17.742 15.8106 17.5011 16.6217 17.5 17.4537C17.5 18.5219 17.8951 19.5464 18.5983 20.3018C19.3016 21.0571 20.2554 21.4815 21.25 21.4815C22.2446 21.4815 23.1984 21.0571 23.9017 20.3018C24.6049 19.5464 25 18.5219 25 17.4537C24.9989 16.6217 24.758 15.8106 24.3103 15.1316C23.8627 14.4527 23.2303 13.9392 22.5 13.6619V10.7407H27.5V40.2778H2.5V10.7407ZM8.75 16.1111C9.08152 16.1111 9.39946 16.2526 9.63388 16.5043C9.86831 16.7561 10 17.0976 10 17.4537C10 17.8098 9.86831 18.1513 9.63388 18.4031C9.39946 18.6548 9.08152 18.7963 8.75 18.7963C8.41848 18.7963 8.10054 18.6548 7.86612 18.4031C7.6317 18.1513 7.5 17.8098 7.5 17.4537C7.5 17.0976 7.6317 16.7561 7.86612 16.5043C8.10054 16.2526 8.41848 16.1111 8.75 16.1111ZM21.25 16.1111C21.5815 16.1111 21.8995 16.2526 22.1339 16.5043C22.3683 16.7561 22.5 17.0976 22.5 17.4537C22.5 17.8098 22.3683 18.1513 22.1339 18.4031C21.8995 18.6548 21.5815 18.7963 21.25 18.7963C20.9185 18.7963 20.6005 18.6548 20.3661 18.4031C20.1317 18.1513 20 17.8098 20 17.4537C20 17.0976 20.1317 16.7561 20.3661 16.5043C20.6005 16.2526 20.9185 16.1111 21.25 16.1111Z" fill="white" fill-opacity="0.8"/>
</svg>
