<svg width="35" height="35" viewBox="0 0 35 35" fill="none" xmlns="http://www.w3.org/2000/svg">
<path fill-rule="evenodd" clip-rule="evenodd" d="M1.59091 0H0V1.59091V12.7273H3.18182V3.18182H12.7273V0H1.59091ZM6.36364 14.3182V15.9091H7.95455H14.3182H15.9091V14.3182V7.95455V6.36364H14.3182H7.95455H6.36364V7.95455V14.3182ZM12.7273 12.7273H9.54545V9.54545H12.7273V12.7273ZM19.0909 14.3182V15.9091H20.6818H27.0455H28.6364V14.3182V7.95455V6.36364H27.0455H20.6818H19.0909V7.95455V14.3182ZM25.4545 12.7273H22.2727V9.54545H25.4545V12.7273ZM6.36364 28.6364V27.0455V20.6818V19.0909H7.95455H14.3182H15.9091V20.6818V27.0455V28.6364H14.3182H7.95455H6.36364ZM9.54545 25.4545H12.7273V22.2727H9.54545V25.4545ZM0 35H1.59091H12.7273V31.8182H3.18182V22.2727H0V33.4091V35ZM35 1.59091V0H33.4091H22.2727V3.18182H31.8182V12.7273H35V1.59091ZM35 35V33.4091V22.2727H31.8182V31.8182H22.2727V35H33.4091H35ZM19.0909 26.25V28.6364H28.6364V25.4545H22.2727V19.0909H19.0909V25.4545V26.25ZM25.4545 19.0909V22.2727H28.6364V19.0909H25.4545Z" fill="white"/>
</svg>
