<svg width="16" height="18" viewBox="0 0 16 18" fill="none" xmlns="http://www.w3.org/2000/svg">
<path d="M6.9372 0.0212887C3.11183 0.0212887 0 3.36362 0 7.47235C0 11.5811 3.11183 14.9234 6.9372 14.9234C8.10661 14.9234 9.2562 14.6254 10.2274 14.0506C10.3052 14.1511 10.3915 14.2438 10.4851 14.3273L12.4671 16.4562C12.6501 16.6774 12.8733 16.8561 13.123 16.9813C13.3726 17.1065 13.6434 17.1755 13.9188 17.1842C14.1942 17.193 14.4683 17.1411 14.7244 17.0319C14.9805 16.9227 15.213 16.7584 15.4079 16.5492C15.6027 16.3399 15.7556 16.0901 15.8573 15.8151C15.959 15.5401 16.0072 15.2456 15.9991 14.9498C15.991 14.6541 15.9267 14.3632 15.8101 14.095C15.6936 13.8269 15.5272 13.5872 15.3213 13.3906L13.3392 11.2617C13.2427 11.158 13.1364 11.0653 13.0221 10.985C13.5573 9.94185 13.8942 8.72839 13.8942 7.45106C13.8942 3.34233 10.7824 0 6.95702 0L6.9372 0.0212887ZM6.9372 2.15016C9.69225 2.15016 11.8923 4.51321 11.8923 7.47235C11.8923 8.87741 11.4166 10.176 10.5842 11.134C10.5644 11.1553 10.5445 11.1766 10.5247 11.1979C10.4311 11.2814 10.3448 11.3741 10.267 11.4746C9.39495 12.3262 8.20571 12.8158 6.91738 12.8158C4.16232 12.8158 1.96224 10.4528 1.96224 7.49364C1.96224 4.5345 4.16232 2.17145 6.91738 2.17145L6.9372 2.15016Z" fill="black" fill-opacity="0.45"/>
</svg>
