<svg width="15" height="15" viewBox="0 0 15 15" fill="none" xmlns="http://www.w3.org/2000/svg">
<path d="M11.4522 14.8997C11.0824 14.8997 10.6078 14.781 10.0146 14.4321L7.92795 13.1969C7.71161 13.0713 7.29288 13.0713 7.08352 13.1969L4.9899 14.4321C3.75466 15.1649 3.02887 14.8718 2.70087 14.6345C2.37984 14.3972 1.87737 13.7901 2.20537 12.3943L2.70087 10.2518C2.7567 10.0285 2.64504 9.64468 2.47754 9.47719L0.74681 7.74645C-0.118557 6.88109 -0.0487692 6.14134 0.0698699 5.77842C0.188509 5.41552 0.565362 4.77348 1.76571 4.57109L3.99194 4.20122C4.2013 4.16632 4.50139 3.943 4.59211 3.75458L5.82735 1.29107C6.38564 0.16749 7.11841 0 7.50224 0C7.88608 0 8.61885 0.16749 9.17715 1.29107L10.4054 3.7476C10.5031 3.93602 10.8032 4.15935 11.0126 4.19424L13.2388 4.56411C14.4461 4.7665 14.823 5.40854 14.9346 5.77144C15.0463 6.13436 15.1161 6.87411 14.2577 7.73947L12.527 9.47719C12.3595 9.64468 12.2548 10.0215 12.3036 10.2518L12.7991 12.3943C13.1202 13.7901 12.6247 14.3972 12.3036 14.6345C12.1292 14.7601 11.85 14.8997 11.4522 14.8997ZM7.50224 12.0524C7.8442 12.0524 8.18616 12.1361 8.45833 12.2966L10.545 13.5319C11.1521 13.8947 11.536 13.8947 11.6825 13.7901C11.8291 13.6854 11.9338 13.3155 11.7802 12.6316L11.2847 10.4891C11.1521 9.90987 11.3685 9.16314 11.7872 8.73744L13.5179 7.0067C13.8599 6.66474 14.0134 6.32976 13.9436 6.09946C13.8669 5.86914 13.5459 5.68072 13.0713 5.60395L10.8451 5.23408C10.3077 5.14335 9.72149 4.71067 9.47723 4.22215L8.24897 1.76563C8.02565 1.31899 7.7465 1.05379 7.50224 1.05379C7.25799 1.05379 6.97884 1.31899 6.76249 1.76563L5.52727 4.22215C5.28301 4.71067 4.69679 5.14335 4.15943 5.23408L1.94018 5.60395C1.46562 5.68072 1.1446 5.86914 1.06783 6.09946C0.991067 6.32976 1.15158 6.67172 1.49354 7.0067L3.22427 8.73744C3.643 9.15616 3.85934 9.90987 3.72674 10.4891L3.23125 12.6316C3.07074 13.3225 3.1824 13.6854 3.32895 13.7901C3.47551 13.8947 3.85236 13.8878 4.46649 13.5319L6.55313 12.2966C6.81832 12.1361 7.16028 12.0524 7.50224 12.0524Z" fill="#394D5F"/>
</svg>
