<svg width="30" height="32" viewBox="0 0 30 32" fill="none" xmlns="http://www.w3.org/2000/svg">
<path d="M25.7129 25.324C25.5581 25.3241 25.404 25.3442 25.2544 25.384V30.9538H23.4784C23.3938 30.5547 23.1747 30.1968 22.8577 29.94C22.5408 29.6832 22.1452 29.543 21.7373 29.543C21.3293 29.543 20.9338 29.6832 20.6168 29.94C20.2999 30.1968 20.0807 30.5547 19.9961 30.9538H17.6649C17.5803 30.5547 17.3612 30.1968 17.0442 29.94C16.7273 29.6832 16.3317 29.543 15.9238 29.543C15.5158 29.543 15.1203 29.6832 14.8033 29.94C14.4863 30.1968 14.2672 30.5547 14.1826 30.9538H11.8495C11.7649 30.5547 11.5458 30.1968 11.2288 29.94C10.9118 29.6832 10.5163 29.543 10.1083 29.543C9.70039 29.543 9.30483 29.6832 8.98787 29.94C8.67091 30.1968 8.45179 30.5547 8.36719 30.9538H6.03598C5.94717 30.5596 5.72687 30.2074 5.41132 29.955C5.09576 29.7026 4.70373 29.5651 4.29967 29.5651C3.89561 29.5651 3.50358 29.7026 3.18802 29.955C2.87247 30.2074 2.65217 30.5596 2.56336 30.9538H0.789321V5.01451H2.56336C2.63879 5.35666 2.81332 5.66903 3.06516 5.91261C3.31701 6.1562 3.63501 6.32022 3.97949 6.38421C4.08301 6.40203 4.18786 6.41109 4.2929 6.41129C4.44857 6.40927 4.60333 6.38717 4.75334 6.34552V5.51944C4.61098 5.59297 4.45312 5.63144 4.2929 5.63165C4.1864 5.63194 4.08055 5.61495 3.97949 5.58135C3.77877 5.51509 3.60401 5.38728 3.48003 5.21608C3.35606 5.04487 3.28916 4.83896 3.28884 4.62758V4.24066H0V31.7276H3.28884V31.3407C3.28884 31.0741 3.39472 30.8185 3.5832 30.63C3.77168 30.4415 4.02732 30.3356 4.29387 30.3356C4.56042 30.3356 4.81605 30.4415 5.00453 30.63C5.19301 30.8185 5.2989 31.0741 5.2989 31.3407V31.7276H9.10814V31.3407C9.11951 31.0818 9.23036 30.8372 9.41759 30.658C9.60483 30.4788 9.854 30.3788 10.1132 30.3788C10.3723 30.3788 10.6215 30.4788 10.8088 30.658C10.996 30.8372 11.1068 31.0818 11.1182 31.3407V31.7276H14.9236V31.3407C14.9236 31.0731 15.0299 30.8165 15.2191 30.6273C15.4083 30.4381 15.6649 30.3318 15.9325 30.3318C16.2001 30.3318 16.4567 30.4381 16.6459 30.6273C16.8351 30.8165 16.9414 31.0731 16.9414 31.3407V31.7276H20.7429V31.3407C20.7429 31.0739 20.8489 30.818 21.0375 30.6293C21.2262 30.4407 21.4821 30.3347 21.7489 30.3347C22.0157 30.3347 22.2716 30.4407 22.4602 30.6293C22.6489 30.818 22.7549 31.0739 22.7549 31.3407V31.7276H26.0437V25.3434C25.9343 25.3261 25.8235 25.3197 25.7129 25.324Z" fill="white"/>
<path d="M26.717 0V0.386922C26.717 0.653729 26.611 0.909609 26.4223 1.09827C26.2337 1.28693 25.9778 1.39292 25.711 1.39292C25.4442 1.39292 25.1883 1.28693 24.9996 1.09827C24.811 0.909609 24.705 0.653729 24.705 0.386922V0H20.9035V0.386922C20.9094 0.522614 20.8878 0.658107 20.84 0.785232C20.7922 0.912357 20.7191 1.02848 20.6252 1.12661C20.5313 1.22473 20.4185 1.30282 20.2936 1.35617C20.1687 1.40952 20.0343 1.43702 19.8984 1.43702C19.7626 1.43702 19.6282 1.40952 19.5033 1.35617C19.3784 1.30282 19.2656 1.22473 19.1717 1.12661C19.0777 1.02848 19.0047 0.912357 18.9569 0.785232C18.909 0.658107 18.8874 0.522614 18.8934 0.386922V0H15.088V0.386922C15.088 0.654242 14.9818 0.910613 14.7928 1.09964C14.6038 1.28866 14.3474 1.39485 14.0801 1.39485C13.8128 1.39485 13.5564 1.28866 13.3674 1.09964C13.1784 0.910613 13.0722 0.654242 13.0722 0.386922V0H9.27452V0.386922C9.28504 0.525066 9.2669 0.663892 9.22126 0.794701C9.17562 0.92551 9.10345 1.04548 9.00927 1.1471C8.9151 1.24871 8.80095 1.32978 8.67399 1.38522C8.54702 1.44066 8.40997 1.46928 8.27142 1.46928C8.13288 1.46928 7.99583 1.44066 7.86886 1.38522C7.7419 1.32978 7.62775 1.24871 7.53358 1.1471C7.4394 1.04548 7.36723 0.92551 7.32159 0.794701C7.27595 0.663892 7.25781 0.525066 7.26833 0.386922V0H3.97949V27.4908H7.26833V27.1039C7.27969 26.845 7.39054 26.6004 7.57778 26.4212C7.76502 26.242 8.01419 26.142 8.27336 26.142C8.53253 26.142 8.7817 26.242 8.96894 26.4212C9.15618 26.6004 9.26703 26.845 9.27839 27.1039V27.4908H13.0722V27.1039C13.0835 26.845 13.1944 26.6004 13.3816 26.4212C13.5688 26.242 13.818 26.142 14.0772 26.142C14.3364 26.142 14.5855 26.242 14.7728 26.4212C14.96 26.6004 15.0709 26.845 15.0822 27.1039V27.4908H18.8876V27.1039C18.899 26.845 19.0098 26.6004 19.197 26.4212C19.3843 26.242 19.6335 26.142 19.8926 26.142C20.1518 26.142 20.401 26.242 20.5882 26.4212C20.7754 26.6004 20.8863 26.845 20.8977 27.1039V27.4908H24.6992V27.1039C24.6994 26.919 24.7508 26.7377 24.8478 26.5803C24.9448 26.4228 25.0835 26.2954 25.2486 26.212C25.3898 26.1373 25.5473 26.0988 25.7071 26.0998C25.839 26.0996 25.9697 26.1254 26.0916 26.1757C26.2136 26.2261 26.3244 26.3001 26.4176 26.3933C26.5109 26.4866 26.5849 26.5974 26.6353 26.7193C26.6856 26.8413 26.7114 26.972 26.7112 27.1039V27.4908H30V0H26.717ZM29.232 26.717H27.456C27.3781 26.3769 27.2019 26.0673 26.9495 25.8265C26.697 25.5857 26.3793 25.4245 26.036 25.3627C25.932 25.3432 25.8264 25.3335 25.7206 25.3337C25.3156 25.3334 24.9225 25.471 24.6061 25.7238C24.2897 25.9766 24.0687 26.3296 23.9795 26.7247H21.6347C21.5501 26.3256 21.331 25.9677 21.0141 25.7109C20.6971 25.4541 20.3015 25.314 19.8936 25.314C19.4857 25.314 19.0901 25.4541 18.7731 25.7109C18.4562 25.9677 18.237 26.3256 18.1524 26.7247H15.8193C15.7347 26.3256 15.5156 25.9677 15.1986 25.7109C14.8817 25.4541 14.4861 25.314 14.0782 25.314C13.6702 25.314 13.2747 25.4541 12.9577 25.7109C12.6407 25.9677 12.4216 26.3256 12.337 26.7247H9.99613C9.90731 26.3305 9.68702 25.9783 9.37147 25.7259C9.05591 25.4736 8.66388 25.3361 8.25982 25.3361C7.85576 25.3361 7.46372 25.4736 7.14817 25.7259C6.83261 25.9783 6.61232 26.3305 6.5235 26.7247H4.75334V0.773844H6.53318C6.62029 1.16948 6.83991 1.52349 7.15566 1.77729C7.47142 2.03108 7.86438 2.16943 8.26949 2.16943C8.6746 2.16943 9.06756 2.03108 9.38332 1.77729C9.69907 1.52349 9.91869 1.16948 10.0058 0.773844H12.3467C12.4294 1.17447 12.6478 1.53431 12.965 1.79266C13.2822 2.05102 13.6787 2.1921 14.0878 2.1921C14.4969 2.1921 14.8935 2.05102 15.2107 1.79266C15.5278 1.53431 15.7462 1.17447 15.829 0.773844H18.1718C18.2545 1.17447 18.4729 1.53431 18.7901 1.79266C19.1073 2.05102 19.5039 2.1921 19.9129 2.1921C20.322 2.1921 20.7186 2.05102 21.0358 1.79266C21.353 1.53431 21.5713 1.17447 21.6541 0.773844H23.993C24.0776 1.17292 24.2968 1.53082 24.6137 1.78763C24.9307 2.04445 25.3262 2.18459 25.7342 2.18459C26.1421 2.18459 26.5377 2.04445 26.8547 1.78763C27.1716 1.53082 27.3907 1.17292 27.4753 0.773844H29.2513L29.232 26.717Z" fill="white"/>
<path d="M10.0812 18.7522C9.48343 18.5587 9.05008 18.3904 9.05008 17.9435C9.05008 17.4966 9.39831 17.2896 9.89937 17.2896C10.3345 17.31 10.7541 17.4573 11.1066 17.7133L11.4664 17.2683C11.1043 17.0045 10.6868 16.8265 10.2457 16.7479V15.8096H9.76589V16.717C8.89144 16.7576 8.41166 17.2857 8.41166 17.9822C8.41166 18.8354 9.12553 19.0811 9.90905 19.3364C10.5687 19.5415 10.9828 19.7137 10.9828 20.2283C10.9828 20.679 10.5958 20.9402 10.0619 20.9402C9.5426 20.9254 9.04854 20.713 8.68057 20.3463L8.30719 20.7932C8.70304 21.1849 9.21859 21.4328 9.77169 21.4974V22.3718H10.2515V21.5032C11.122 21.4335 11.6367 20.9228 11.6367 20.1896C11.6309 19.2648 10.9615 19.0308 10.0812 18.7522Z" fill="white"/>
<path d="M8.30139 5.36081H25.5891V6.13465H8.30139V5.36081Z" fill="white"/>
<path d="M8.30139 8.87793H25.5891V9.65177H8.30139V8.87793Z" fill="white"/>
<path d="M8.30139 12.3951H25.5891V13.1689H8.30139V12.3951Z" fill="white"/>
<path d="M14.0395 18.7019H25.5891V19.4757H14.0395V18.7019Z" fill="white"/>
</svg>
