<svg width="27" height="27" viewBox="0 0 27 27" fill="none" xmlns="http://www.w3.org/2000/svg">
<path d="M22.875 26C23.9105 26 24.75 25.1605 24.75 24.125C24.75 23.0895 23.9105 22.25 22.875 22.25C21.8395 22.25 21 23.0895 21 24.125C21 25.1605 21.8395 26 22.875 26Z" fill="white" stroke="white" stroke-linecap="round" stroke-linejoin="round"/>
<path d="M10.375 26C11.4105 26 12.25 25.1605 12.25 24.125C12.25 23.0895 11.4105 22.25 10.375 22.25C9.33945 22.25 8.49998 23.0895 8.49998 24.125C8.49998 25.1605 9.33945 26 10.375 26Z" fill="white" stroke="white" stroke-linecap="round" stroke-linejoin="round"/>
<path d="M4.75 3.5H26L23.5 17.25H7.25L4.75 3.5ZM4.75 3.5C4.54166 2.66666 3.5 1 1 1" stroke="white" stroke-linecap="round" stroke-linejoin="round"/>
<path d="M23.5 17.25H7.25002H5.03849C2.8081 17.25 1.62502 18.2265 1.62502 19.75C1.62502 21.2735 2.8081 22.25 5.03849 22.25H22.875" stroke="white" stroke-linecap="round" stroke-linejoin="round"/>
</svg>
