<svg width="30" height="41" viewBox="0 0 30 41" fill="none" xmlns="http://www.w3.org/2000/svg">
<path d="M15 0C13.0109 0 11.1032 0.809931 9.6967 2.25162C8.29018 3.6933 7.5 5.64865 7.5 7.6875H0V10.25V38.4375V41H30V38.4375V10.25V7.6875H22.5C22.5 5.64865 21.7098 3.6933 20.3033 2.25162C18.8968 0.809931 16.9891 0 15 0ZM15 2.5625C16.3261 2.5625 17.5979 3.10245 18.5355 4.06358C19.4732 5.0247 20 6.32827 20 7.6875H10C10 6.32827 10.5268 5.0247 11.4645 4.06358C12.4021 3.10245 13.6739 2.5625 15 2.5625ZM2.5 10.25H7.5V13.0377C6.76972 13.3024 6.1373 13.7923 5.68965 14.4403C5.24201 15.0882 5.00109 15.8623 5 16.6562C5 17.6757 5.39509 18.6533 6.09835 19.3742C6.80161 20.095 7.75544 20.5 8.75 20.5C9.74456 20.5 10.6984 20.095 11.4017 19.3742C12.1049 18.6533 12.5 17.6757 12.5 16.6562C12.4989 15.8623 12.258 15.0882 11.8103 14.4403C11.3627 13.7923 10.7303 13.3024 10 13.0377V10.25H20V13.0377C19.2697 13.3024 18.6373 13.7923 18.1897 14.4403C17.742 15.0882 17.5011 15.8623 17.5 16.6562C17.5 17.6757 17.8951 18.6533 18.5983 19.3742C19.3016 20.095 20.2554 20.5 21.25 20.5C22.2446 20.5 23.1984 20.095 23.9017 19.3742C24.6049 18.6533 25 17.6757 25 16.6562C24.9989 15.8623 24.758 15.0882 24.3103 14.4403C23.8627 13.7923 23.2303 13.3024 22.5 13.0377V10.25H27.5V38.4375H2.5V10.25ZM8.75 15.375C9.08152 15.375 9.39946 15.51 9.63388 15.7503C9.86831 15.9905 10 16.3164 10 16.6562C10 16.9961 9.86831 17.322 9.63388 17.5622C9.39946 17.8025 9.08152 17.9375 8.75 17.9375C8.41848 17.9375 8.10054 17.8025 7.86612 17.5622C7.6317 17.322 7.5 16.9961 7.5 16.6562C7.5 16.3164 7.6317 15.9905 7.86612 15.7503C8.10054 15.51 8.41848 15.375 8.75 15.375ZM21.25 15.375C21.5815 15.375 21.8995 15.51 22.1339 15.7503C22.3683 15.9905 22.5 16.3164 22.5 16.6562C22.5 16.9961 22.3683 17.322 22.1339 17.5622C21.8995 17.8025 21.5815 17.9375 21.25 17.9375C20.9185 17.9375 20.6005 17.8025 20.3661 17.5622C20.1317 17.322 20 16.9961 20 16.6562C20 16.3164 20.1317 15.9905 20.3661 15.7503C20.6005 15.51 20.9185 15.375 21.25 15.375Z" fill="white" fill-opacity="0.97"/>
</svg>
