<svg width="23" height="17" viewBox="0 0 23 17" fill="none" xmlns="http://www.w3.org/2000/svg">
<path d="M10.3633 0.41581C10.2687 0.321245 10.2687 0.167344 10.3633 0.0709241C10.4578 -0.0236414 10.6117 -0.0236414 10.7081 0.0709241C11.2181 0.580836 11.0234 0.94241 10.799 1.36332C10.6395 1.66185 10.456 2.00303 10.7471 2.50738C10.8138 2.62419 10.7749 2.77253 10.6581 2.83928C10.5413 2.90603 10.3929 2.8671 10.3262 2.75028C9.89971 2.0123 10.1519 1.54318 10.3707 1.1334C10.5023 0.886783 10.6191 0.671693 10.3633 0.41581ZM1.00314 10.221H3.09099C3.08914 9.95951 3.08172 9.75925 3.07801 9.58681C3.05947 8.93041 3.04835 8.60221 3.26158 8.36302C3.49151 8.10528 3.80116 8.11641 4.42418 8.1368C4.62629 8.14422 4.8729 8.15164 5.22521 8.15164C5.41434 8.15164 5.56638 8.30368 5.56638 8.49281C5.56638 8.68194 5.41434 8.83399 5.22521 8.83399C4.93038 8.83399 4.64113 8.82472 4.40193 8.81545C3.99215 8.80062 3.78818 8.79505 3.76964 8.81545C3.73626 8.85253 3.74368 9.09173 3.75666 9.56641C3.76222 9.75925 3.76964 9.98361 3.77149 10.2191H7.64868V8.86922C7.64868 8.72459 7.80072 8.60592 7.98986 8.60592C8.17899 8.60592 8.33103 8.72274 8.33103 8.86922V10.2191H12.2082C12.2119 9.98361 12.2175 9.7611 12.2231 9.56641C12.2379 9.09173 12.2434 8.85253 12.2101 8.81545C12.1915 8.79505 11.9876 8.80247 11.5778 8.81545C11.3404 8.82287 11.0493 8.83399 10.7545 8.83399C10.5654 8.83399 10.4133 8.68194 10.4133 8.49281C10.4133 8.30368 10.5654 8.15164 10.7545 8.15164C11.1087 8.15164 11.3534 8.14237 11.5555 8.1368C12.1786 8.11455 12.4882 8.10528 12.7181 8.36302C12.9295 8.60221 12.9202 8.93041 12.9017 9.58681C12.8961 9.75925 12.8906 9.95951 12.8887 10.221H17.7783C18.0546 10.221 18.3049 10.3341 18.4866 10.5158C18.494 10.5232 18.5015 10.5306 18.507 10.538C18.6758 10.7179 18.7796 10.9589 18.7796 11.2241V12.1531C19.4712 12.1586 20.0312 12.7223 20.0312 13.4158C20.0312 14.1093 19.4712 14.6729 18.7796 14.6785V15.4981C18.7796 15.7725 18.6665 16.0228 18.4848 16.2045C18.3031 16.3863 18.0527 16.4975 17.7783 16.4975H16.1633V16.8535C16.1633 16.9351 16.0112 17 15.8221 17C15.633 17 15.4809 16.9351 15.4809 16.8535V16.4975H2.75167V16.8535C2.75167 16.9351 2.59962 17 2.41049 17C2.22136 17 2.06932 16.9351 2.06932 16.8535V16.4975H1.00314C0.72871 16.4975 0.47839 16.3844 0.294822 16.2027C0.113108 16.0228 0 15.7725 0 15.4962V11.2241C0 10.9497 0.113108 10.6993 0.294822 10.5176C0.476536 10.3341 0.726856 10.221 1.00314 10.221ZM17.7802 10.9033H1.00314C0.915987 10.9033 0.834401 10.9404 0.77692 10.9979C0.719439 11.0554 0.682355 11.1369 0.682355 11.2241V15.4962C0.682355 15.5834 0.719439 15.665 0.77692 15.7224C0.834401 15.7799 0.914133 15.8152 1.00314 15.8152H17.782C17.871 15.8152 17.9508 15.7799 18.0082 15.7224L18.0101 15.7206C18.0676 15.6631 18.1028 15.5834 18.1028 15.4944V11.2241C18.1028 11.1425 18.0713 11.0665 18.0212 11.009C18.0175 11.0053 18.0119 11.0016 18.0082 10.9979C17.9489 10.9404 17.8692 10.9033 17.7802 10.9033ZM22.0059 4.30597H18.1362C17.8302 4.30597 17.5632 4.48583 17.4371 4.74357H14.361L14.463 4.20214C14.4908 4.05009 14.3906 3.90361 14.2404 3.87579C14.2238 3.87209 14.2052 3.87023 14.1885 3.87023H2.50135C2.34745 3.87023 2.22136 3.99632 2.22136 4.15022C2.22136 4.18174 2.22692 4.21326 2.2362 4.24108L2.65525 5.83015C2.77763 6.29 2.98159 6.72574 3.2894 7.03354C3.56938 7.31353 3.92539 7.48782 4.37226 7.48782H12.4363C12.8924 7.48782 13.2707 7.30796 13.5599 7.0187C13.8677 6.7109 14.0699 6.27887 14.1589 5.8116L14.2312 5.42593H17.4371C17.5651 5.68366 17.8302 5.86352 18.1362 5.86352H22.0059C22.4343 5.86352 22.7847 5.51307 22.7847 5.08475C22.7847 4.65642 22.4343 4.30597 22.0059 4.30597ZM13.61 5.70777C13.5433 6.06749 13.3912 6.39383 13.165 6.6219C12.9759 6.81103 12.733 6.92785 12.4381 6.92785H4.37226C4.09042 6.92785 3.86235 6.81659 3.68435 6.63859C3.45257 6.40681 3.2931 6.06193 3.19483 5.68923L2.86292 4.43206H13.8511C13.7695 4.85853 13.6916 5.27944 13.61 5.70777ZM5.59049 0.41581C5.49592 0.321245 5.49592 0.167344 5.59049 0.0709241C5.68505 -0.0236414 5.83895 -0.0236414 5.93537 0.0709241C6.44529 0.580836 6.25059 0.94241 6.02438 1.36332C5.86491 1.66185 5.68135 2.00303 5.97246 2.50738C6.03921 2.62419 6.00027 2.77253 5.88346 2.83928C5.76664 2.90603 5.6183 2.8671 5.55155 2.75028C5.12508 2.0123 5.37725 1.54318 5.59605 1.1334C5.72956 0.886783 5.84637 0.671693 5.59049 0.41581ZM7.18141 0.41581C7.08685 0.321245 7.08685 0.167344 7.18141 0.0709241C7.27598 -0.0236414 7.42988 -0.0236414 7.5263 0.0709241C8.03621 0.580836 7.84152 0.94241 7.61716 1.36332C7.45769 1.66185 7.27413 2.00488 7.56524 2.50923C7.63199 2.62605 7.5912 2.77438 7.47624 2.84114C7.35942 2.90789 7.21108 2.8671 7.14433 2.75213C6.71786 2.01415 6.97003 1.54689 7.18883 1.1371C7.32048 0.886783 7.4373 0.671693 7.18141 0.41581ZM8.77234 0.41581C8.67777 0.321245 8.67777 0.167344 8.77234 0.0709241C8.8669 -0.0236414 9.0208 -0.0236414 9.11722 0.0709241C9.62714 0.580836 9.43244 0.944264 9.20808 1.36332C9.04862 1.66185 8.86505 2.00488 9.15616 2.50923C9.22292 2.62605 9.18212 2.77438 9.06716 2.84114C8.95035 2.90789 8.80201 2.8671 8.73525 2.75213C8.30878 2.01415 8.56096 1.54689 8.77976 1.1371C8.91141 0.886783 9.02822 0.671693 8.77234 0.41581Z" fill="white"/>
</svg>
