<svg width="20" height="17" viewBox="0 0 20 17" fill="none" xmlns="http://www.w3.org/2000/svg">
<path d="M10.1714 1.21143V15.4514H18.6743V1.21143H10.1714ZM17.2343 12.0686H11.5886V11.6571H17.2343V12.0686ZM17.2343 10.6057H11.5886V10.1943H17.2343V10.6057ZM17.2343 9.14286H11.5886V8.75429H17.2343V9.14286ZM17.2343 7.79429H11.5886V7.40571H17.2343V7.79429ZM17.2343 6.35429H11.5886V5.94286H17.2343V6.35429ZM17.2343 4.98286H11.5886V4.57143H17.2343V4.98286ZM10.1714 0V0.502857H19.4286V15.9771H10.1714V16.64H20V0H10.1714ZM1.30286 15.4514H9.82857V1.21143H1.30286V15.4514ZM6.14857 5.34857C6.17143 5.00571 6.44571 4.73143 6.78857 4.73143C6.99429 4.73143 7.17714 4.89143 7.17714 5.09714V10.1486C7.17714 10.3314 7.01714 10.4686 6.85714 10.4686H6.60571C6.51429 10.4686 6.44571 10.4229 6.37714 10.3771C6.33143 10.3086 6.30857 10.24 6.30857 10.1486L6.35429 8.22857C6.24 8.22857 6.14857 8.18286 6.05714 8.09143C5.98857 8.02286 5.96571 7.90857 5.96571 7.79429L6.14857 5.34857ZM3.95429 4.84571C3.95429 4.77714 4 4.73143 4.06857 4.73143H4.09143C4.16 4.73143 4.20571 4.77714 4.20571 4.84571V5.92C4.20571 6.01143 4.29714 6.10286 4.38857 6.10286H4.41143C4.50286 6.10286 4.59429 6.01143 4.59429 5.92V4.84571C4.59429 4.77714 4.64 4.73143 4.68571 4.73143H4.73143C4.77714 4.73143 4.82286 4.77714 4.82286 4.84571V5.92C4.82286 6.01143 4.91429 6.10286 5.00571 6.10286H5.02857C5.14286 6.10286 5.21143 6.01143 5.21143 5.92V4.84571C5.21143 4.77714 5.25714 4.73143 5.32571 4.73143H5.34857C5.41714 4.73143 5.46286 4.77714 5.46286 4.84571V6.46857C5.46286 6.67429 5.30286 6.83429 5.09714 6.83429H5.02857L5.12 10.1486C5.12 10.24 5.09714 10.3086 5.05143 10.3771C4.98286 10.4229 4.91429 10.4686 4.82286 10.4686H4.57143C4.50286 10.4686 4.41143 10.4229 4.36571 10.3771C4.29714 10.3086 4.27429 10.24 4.27429 10.1486L4.38857 6.83429H4.34286C4.13714 6.83429 3.95429 6.67429 3.95429 6.46857V4.84571ZM0 16.64H9.82857V15.9771H0.548571V0.502857H9.82857V0H0V16.64Z" fill="white"/>
</svg>
