<svg width="37" height="37" viewBox="0 0 37 37" fill="none" xmlns="http://www.w3.org/2000/svg">
<path d="M32.375 5.14718H9.90039L9.68359 4.25202C9.44271 3.1082 8.90072 2.17574 8.05762 1.45464C7.21452 0.733537 6.21484 0.372986 5.05859 0.372986H1.51758C1.08398 0.372986 0.722656 0.522179 0.433594 0.820566C0.144531 1.11895 0 1.5168 0 2.01411C0 2.4617 0.144531 2.83468 0.433594 3.13307C0.722656 3.43145 1.08398 3.58065 1.51758 3.58065H5.05859C5.97396 3.58065 6.50391 4.00336 6.64844 4.84879L10.1895 23.9456C10.4785 24.9899 11.0446 25.8354 11.8877 26.4819C12.7308 27.1284 13.6582 27.4516 14.6699 27.4516H29.2676C29.7493 27.4516 30.1348 27.3024 30.4238 27.004C30.7129 26.7056 30.8574 26.3327 30.8574 25.8851C30.8574 24.791 30.3275 24.244 29.2676 24.244H14.6699C13.9954 24.244 13.5137 23.9456 13.2246 23.3488L13.0801 22.6774H28.5449C29.5085 22.6774 30.3877 22.379 31.1826 21.7823C31.9775 21.1855 32.5195 20.4147 32.8086 19.4698L37 10.2944V9.92137C37 8.57863 36.5544 7.44725 35.6631 6.52722C34.7718 5.60719 33.6758 5.14718 32.375 5.14718ZM30.0625 18.2016V18.3508C29.918 19.0968 29.4121 19.4698 28.5449 19.4698H12.502L10.4785 8.35484H32.375C33.2422 8.35484 33.748 8.77756 33.8926 9.62298L30.0625 18.2016ZM18.5 32.2258C18.5 33.121 18.1989 33.8794 17.5967 34.501C16.9945 35.1226 16.2598 35.4335 15.3926 35.4335C14.5736 35.4335 13.863 35.1226 13.2607 34.501C12.6585 33.8794 12.3574 33.121 12.3574 32.2258C12.3574 31.3306 12.6585 30.5722 13.2607 29.9506C13.863 29.329 14.5736 29.0181 15.3926 29.0181C16.2598 29.0181 16.9945 29.329 17.5967 29.9506C18.1989 30.5722 18.5 31.3306 18.5 32.2258ZM30.8574 32.2258C30.8574 33.121 30.5563 33.8794 29.9541 34.501C29.3519 35.1226 28.6172 35.4335 27.75 35.4335C26.8828 35.4335 26.1481 35.1226 25.5459 34.501C24.9437 33.8794 24.6426 33.121 24.6426 32.2258C24.6426 31.3306 24.9437 30.5722 25.5459 29.9506C26.1481 29.329 26.8828 29.0181 27.75 29.0181C28.6172 29.0181 29.3519 29.329 29.9541 29.9506C30.5563 30.5722 30.8574 31.3306 30.8574 32.2258Z" fill="#000000"/>
</svg>
