<svg width="24" height="25" viewBox="0 0 24 25" fill="none" xmlns="http://www.w3.org/2000/svg">
<path d="M20.2607 19.9542C20.1387 19.9542 20.0173 19.9701 19.8994 20.0015V24.3902H18.5C18.4333 24.0758 18.2607 23.7937 18.0109 23.5914C17.7612 23.389 17.4495 23.2786 17.128 23.2786C16.8066 23.2786 16.4949 23.389 16.2452 23.5914C15.9954 23.7937 15.8228 24.0758 15.7561 24.3902H13.9192C13.8525 24.0758 13.6799 23.7937 13.4301 23.5914C13.1804 23.389 12.8687 23.2786 12.5473 23.2786C12.2258 23.2786 11.9141 23.389 11.6644 23.5914C11.4146 23.7937 11.242 24.0758 11.1753 24.3902H9.33689C9.27023 24.0758 9.09757 23.7937 8.84782 23.5914C8.59807 23.389 8.28638 23.2786 7.96494 23.2786C7.6435 23.2786 7.33181 23.389 7.08206 23.5914C6.83231 23.7937 6.65965 24.0758 6.59299 24.3902H4.7561C4.68611 24.0796 4.51253 23.8021 4.26389 23.6032C4.01524 23.4044 3.70634 23.296 3.38796 23.296C3.06958 23.296 2.76067 23.4044 2.51203 23.6032C2.26338 23.8021 2.0898 24.0796 2.01982 24.3902H0.621951V3.95119H2.01982C2.07925 4.22079 2.21677 4.46692 2.41522 4.65886C2.61366 4.85079 2.86424 4.98004 3.13567 5.03046C3.21724 5.0445 3.29985 5.05164 3.38262 5.0518C3.50528 5.05021 3.62723 5.03279 3.74543 4.99997V4.34905C3.63326 4.407 3.50887 4.43731 3.38262 4.43747C3.2987 4.4377 3.2153 4.42431 3.13567 4.39783C2.97751 4.34562 2.83981 4.24492 2.74212 4.11002C2.64443 3.97511 2.59172 3.81287 2.59146 3.64631V3.34143H0V25H2.59146V24.6951C2.59146 24.4851 2.6749 24.2836 2.82341 24.1351C2.97193 23.9866 3.17335 23.9032 3.38338 23.9032C3.59341 23.9032 3.79484 23.9866 3.94336 24.1351C4.09187 24.2836 4.1753 24.4851 4.1753 24.6951V25H7.17683V24.6951C7.18578 24.4911 7.27313 24.2984 7.42066 24.1572C7.5682 24.016 7.76453 23.9372 7.96875 23.9372C8.17297 23.9372 8.3693 24.016 8.51684 24.1572C8.66437 24.2984 8.75172 24.4911 8.76067 24.6951V25H11.7591V24.6951C11.7591 24.4843 11.8429 24.282 11.992 24.133C12.1411 23.9839 12.3433 23.9001 12.5541 23.9001C12.765 23.9001 12.9672 23.9839 13.1162 24.133C13.2653 24.282 13.3491 24.4843 13.3491 24.6951V25H16.3445V24.6951C16.3445 24.4849 16.428 24.2832 16.5767 24.1346C16.7253 23.9859 16.927 23.9024 17.1372 23.9024C17.3474 23.9024 17.5491 23.9859 17.6977 24.1346C17.8464 24.2832 17.9299 24.4849 17.9299 24.6951V25H20.5213V19.9695C20.4352 19.9559 20.3479 19.9508 20.2607 19.9542Z" fill="white"/>
<path d="M21.0518 0V0.304878C21.0518 0.515111 20.9683 0.716733 20.8197 0.86539C20.671 1.01405 20.4694 1.09756 20.2592 1.09756C20.0489 1.09756 19.8473 1.01405 19.6986 0.86539C19.55 0.716733 19.4665 0.515111 19.4665 0.304878V0H16.471V0.304878C16.4757 0.411798 16.4587 0.51856 16.421 0.618729C16.3834 0.718899 16.3258 0.8104 16.2518 0.887718C16.1778 0.965035 16.0889 1.02657 15.9905 1.0686C15.8921 1.11064 15.7861 1.13231 15.6791 1.13231C15.5721 1.13231 15.4662 1.11064 15.3678 1.0686C15.2693 1.02657 15.1805 0.965035 15.1065 0.887718C15.0325 0.8104 14.9749 0.718899 14.9372 0.618729C14.8995 0.51856 14.8825 0.411798 14.8872 0.304878V0H11.8887V0.304878C11.8887 0.515515 11.8051 0.717524 11.6561 0.866467C11.5072 1.01541 11.3052 1.09909 11.0945 1.09909C10.8839 1.09909 10.6819 1.01541 10.5329 0.866467C10.384 0.717524 10.3003 0.515515 10.3003 0.304878V0H7.30794V0.304878C7.31622 0.413729 7.30194 0.523119 7.26597 0.626191C7.23001 0.729263 7.17314 0.823795 7.09893 0.903863C7.02473 0.983932 6.93479 1.04781 6.83474 1.09149C6.7347 1.13518 6.62671 1.15773 6.51754 1.15773C6.40837 1.15773 6.30038 1.13518 6.20034 1.09149C6.1003 1.04781 6.01035 0.983932 5.93615 0.903863C5.86194 0.823795 5.80508 0.729263 5.76911 0.626191C5.73315 0.523119 5.71886 0.413729 5.72714 0.304878V0H3.13568V21.6616H5.72714V21.3567C5.7361 21.1527 5.82344 20.96 5.97098 20.8188C6.11851 20.6776 6.31485 20.5988 6.51906 20.5988C6.72328 20.5988 6.91962 20.6776 7.06715 20.8188C7.21469 20.96 7.30203 21.1527 7.31099 21.3567V21.6616H10.3003V21.3567C10.3093 21.1527 10.3966 20.96 10.5441 20.8188C10.6917 20.6776 10.888 20.5988 11.0922 20.5988C11.2965 20.5988 11.4928 20.6776 11.6403 20.8188C11.7879 20.96 11.8752 21.1527 11.8842 21.3567V21.6616H14.8826V21.3567C14.8916 21.1527 14.9789 20.96 15.1265 20.8188C15.274 20.6776 15.4703 20.5988 15.6746 20.5988C15.8788 20.5988 16.0751 20.6776 16.2226 20.8188C16.3702 20.96 16.4575 21.1527 16.4665 21.3567V21.6616H19.4619V21.3567C19.462 21.211 19.5026 21.0682 19.579 20.9441C19.6554 20.8201 19.7648 20.7196 19.8948 20.654C20.0061 20.5951 20.1302 20.5647 20.2561 20.5655C20.3601 20.5653 20.463 20.5857 20.5591 20.6254C20.6552 20.6651 20.7425 20.7233 20.816 20.7968C20.8895 20.8703 20.9478 20.9576 20.9875 21.0537C21.0271 21.1498 21.0475 21.2528 21.0473 21.3567V21.6616H23.6387V0H21.0518ZM23.0335 21.0518H21.6342C21.5728 20.7839 21.434 20.5399 21.235 20.3502C21.0361 20.1605 20.7858 20.0334 20.5153 19.9848C20.4333 19.9694 20.3501 19.9617 20.2668 19.9619C19.9476 19.9617 19.6379 20.0701 19.3886 20.2693C19.1392 20.4685 18.9651 20.7466 18.8948 21.0579H17.0473C16.9806 20.7435 16.8079 20.4615 16.5582 20.2591C16.3084 20.0567 15.9968 19.9463 15.6753 19.9463C15.3539 19.9463 15.0422 20.0567 14.7924 20.2591C14.5427 20.4615 14.37 20.7435 14.3034 21.0579H12.4649C12.3983 20.7435 12.2256 20.4615 11.9759 20.2591C11.7261 20.0567 11.4144 19.9463 11.093 19.9463C10.7716 19.9463 10.4599 20.0567 10.2101 20.2591C9.96036 20.4615 9.78771 20.7435 9.72105 21.0579H7.87653C7.80655 20.7473 7.63297 20.4698 7.38433 20.2709C7.13568 20.0721 6.82678 19.9638 6.50839 19.9638C6.19001 19.9638 5.88111 20.0721 5.63246 20.2709C5.38382 20.4698 5.21024 20.7473 5.14025 21.0579H3.74544V0.609756H5.14788C5.21652 0.921497 5.38957 1.20045 5.63837 1.40043C5.88717 1.6004 6.19681 1.70942 6.51602 1.70942C6.83523 1.70942 7.14486 1.6004 7.39366 1.40043C7.64247 1.20045 7.81551 0.921497 7.88416 0.609756H9.72867C9.79388 0.925434 9.96595 1.20897 10.2159 1.41254C10.4658 1.61612 10.7783 1.72728 11.1006 1.72728C11.423 1.72728 11.7354 1.61612 11.9854 1.41254C12.2353 1.20897 12.4074 0.925434 12.4726 0.609756H14.3186C14.3838 0.925434 14.5559 1.20897 14.8058 1.41254C15.0557 1.61612 15.3682 1.72728 15.6906 1.72728C16.0129 1.72728 16.3254 1.61612 16.5753 1.41254C16.8252 1.20897 16.9973 0.925434 17.0625 0.609756H18.9055C18.9722 0.92421 19.1448 1.20622 19.3946 1.40858C19.6443 1.61094 19.956 1.72136 20.2774 1.72136C20.5989 1.72136 20.9106 1.61094 21.1603 1.40858C21.4101 1.20622 21.5827 0.92421 21.6494 0.609756H23.0488L23.0335 21.0518Z" fill="white"/>
<path d="M7.94357 14.7759C7.47253 14.6235 7.13107 14.4909 7.13107 14.1387C7.13107 13.7866 7.40546 13.6235 7.80027 13.6235C8.14312 13.6396 8.47378 13.7556 8.75149 13.9573L9.03503 13.6067C8.74967 13.3988 8.42073 13.2586 8.07314 13.1967V12.4573H7.69509V13.1723C7.00607 13.2043 6.62802 13.6204 6.62802 14.1692C6.62802 14.8415 7.19052 15.0351 7.8079 15.2363C8.32771 15.3979 8.65393 15.5336 8.65393 15.939C8.65393 16.2942 8.34905 16.5 7.92832 16.5C7.51915 16.4884 7.12985 16.321 6.83991 16.032L6.5457 16.3842C6.85761 16.6928 7.26384 16.8881 7.69966 16.939V17.6281H8.07771V16.9436C8.76369 16.8887 9.16918 16.4863 9.16918 15.9086C9.1646 15.1799 8.63716 14.9954 7.94357 14.7759Z" fill="white"/>
<path d="M6.54112 4.22406H20.1631V4.83382H6.54112V4.22406Z" fill="white"/>
<path d="M6.54112 6.99542H20.1631V7.60518H6.54112V6.99542Z" fill="white"/>
<path d="M6.54112 9.76678H20.1631V10.3765H6.54112V9.76678Z" fill="white"/>
<path d="M11.0625 14.7363H20.1631V15.346H11.0625V14.7363Z" fill="white"/>
</svg>
