<svg width="25" height="25" viewBox="0 0 25 25" fill="none" xmlns="http://www.w3.org/2000/svg">
<path d="M23.6111 10.7444V21.5277C23.6111 23.4454 22.0565 25 20.1389 25H15.9722C15.5887 25 15.2778 24.689 15.2778 24.3055V15.9722C15.2778 15.5887 14.9669 15.2778 14.5833 15.2778H10.4167C10.0331 15.2778 9.72223 15.5887 9.72223 15.9722V24.3055C9.72223 24.689 9.41131 25 9.02778 25H4.86112C2.94347 25 1.38891 23.4454 1.38891 21.5277V10.7444L1.13593 10.9527C0.839867 11.1965 0.402214 11.1542 0.158401 10.8581C-0.0854119 10.5621 -0.0430585 10.1244 0.253 9.88059L12.0585 0.158382C12.315 -0.0527938 12.685 -0.0527938 12.9415 0.158382L24.747 9.88059C25.0431 10.1244 25.0854 10.5621 24.8416 10.8581C24.5978 11.1542 24.1601 11.1965 23.8641 10.9527L23.6111 10.7444ZM22.2315 9.60825L12.5 1.59406L2.76849 9.60825C2.77461 9.64533 2.77779 9.6834 2.77779 9.72221V21.5277C2.77779 22.6783 3.71053 23.6111 4.86112 23.6111H8.33334V15.9722C8.33334 14.8216 9.26608 13.8889 10.4167 13.8889H14.5833C15.7339 13.8889 16.6667 14.8216 16.6667 15.9722V23.6111H20.1389C21.2895 23.6111 22.2222 22.6783 22.2222 21.5277V9.72221C22.2222 9.6834 22.2254 9.64533 22.2315 9.60825Z" fill="white" fill-opacity="0.97"/>
</svg>
